<svg width="184" height="209" viewBox="0 0 184 209" fill="none" xmlns="http://www.w3.org/2000/svg">
<path d="M66.976 33.744C68.1707 35.92 68.768 38.1387 68.768 40.4C68.768 42.6613 68.1707 44.88 66.976 47.056C65.7813 49.104 64.1387 50.704 62.048 51.856C60.128 53.008 57.9307 53.584 55.456 53.584H52.064C51.4667 53.584 50.976 53.7973 50.592 54.224C50.208 54.608 50.016 55.0773 50.016 55.632V70.992C50.016 71.8453 49.7173 72.5707 49.12 73.168C48.5653 73.7227 47.8613 74 47.008 74C46.1547 74 45.4293 73.7227 44.832 73.168C44.2773 72.5707 44 71.8453 44 70.992V50.576V30.224C44 29.3707 44.2773 28.6667 44.832 28.112C45.4293 27.5147 46.1547 27.216 47.008 27.216H55.456C57.8453 27.216 60.0427 27.792 62.048 28.944C64.1387 30.096 65.7813 31.696 66.976 33.744ZM61.792 44.048C62.432 42.896 62.752 41.68 62.752 40.4C62.752 39.12 62.432 37.904 61.792 36.752C61.152 35.6853 60.256 34.8107 59.104 34.128C57.9947 33.488 56.7787 33.168 55.456 33.168H52.064C51.4667 33.168 50.976 33.3813 50.592 33.808C50.208 34.192 50.016 34.6613 50.016 35.216V45.584C50.016 46.1387 50.208 46.6293 50.592 47.056C50.976 47.44 51.4667 47.632 52.064 47.632H55.456C56.7787 47.632 57.9947 47.312 59.104 46.672C60.256 45.9893 61.152 45.1147 61.792 44.048ZM78.1955 27.216C79.0488 27.216 79.7528 27.5147 80.3075 28.112C80.9048 28.6667 81.2035 29.3707 81.2035 30.224V70.992C81.2035 71.8453 80.9048 72.5707 80.3075 73.168C79.7528 73.7227 79.0488 74 78.1955 74C77.3422 74 76.6168 73.7227 76.0195 73.168C75.4648 72.5707 75.1875 71.8453 75.1875 70.992V30.224C75.1875 29.3707 75.4648 28.6667 76.0195 28.112C76.6168 27.5147 77.3422 27.216 78.1955 27.216ZM118.857 69.392C119.284 70.1173 119.412 70.8853 119.241 71.696C119.07 72.464 118.622 73.0827 117.897 73.552C117.172 74.0213 116.404 74.1707 115.593 74C114.825 73.7867 114.206 73.3173 113.737 72.592L104.777 58.256C104.436 57.7867 103.988 57.552 103.433 57.552C102.921 57.552 102.494 57.7867 102.153 58.256L93.129 72.592C92.6597 73.3173 92.041 73.7867 91.273 74C90.505 74.1707 89.7583 74.0213 89.033 73.552C88.3077 73.0827 87.8383 72.464 87.625 71.696C87.4543 70.8853 87.6037 70.1173 88.073 69.392L99.401 51.408C99.7423 50.8533 99.7423 50.2987 99.401 49.744L88.073 31.76C87.6037 31.0773 87.4543 30.352 87.625 29.584C87.8383 28.7733 88.3077 28.1333 89.033 27.664C89.7583 27.1947 90.505 27.0667 91.273 27.28C92.041 27.4507 92.6597 27.8987 93.129 28.624L102.217 43.024C102.473 43.408 102.878 43.6 103.433 43.6C104.03 43.6 104.436 43.4293 104.649 43.088L113.737 28.624C114.206 27.8987 114.825 27.4507 115.593 27.28C116.404 27.0667 117.172 27.1947 117.897 27.664C118.622 28.1333 119.07 28.7733 119.241 29.584C119.412 30.352 119.284 31.0773 118.857 31.76L107.529 49.744C107.188 50.3413 107.188 50.9173 107.529 51.472L118.857 69.392ZM146.744 67.984C147.554 67.984 148.237 68.2827 148.792 68.88C149.389 69.4347 149.688 70.1387 149.688 70.992C149.688 71.8453 149.389 72.5707 148.792 73.168C148.237 73.7227 147.554 74 146.744 74H128.696C127.842 74 127.117 73.7227 126.52 73.168C125.965 72.5707 125.688 71.8453 125.688 70.992V30.224C125.688 29.3707 125.965 28.6667 126.52 28.112C127.117 27.5147 127.842 27.216 128.696 27.216H147C147.853 27.216 148.557 27.5147 149.112 28.112C149.709 28.6667 150.008 29.3707 150.008 30.224C150.008 31.0347 149.709 31.7387 149.112 32.336C148.557 32.8907 147.853 33.168 147 33.168H133.752C133.154 33.168 132.664 33.3813 132.28 33.808C131.896 34.192 131.704 34.6613 131.704 35.216V43.856C131.832 44.24 132.066 44.56 132.408 44.816C132.749 45.072 133.154 45.2 133.624 45.2H133.752L140.728 42.256C141.496 41.9147 142.264 41.9147 143.032 42.256C143.8 42.5547 144.354 43.088 144.696 43.856C145.037 44.624 145.037 45.392 144.696 46.16C144.354 46.8853 143.821 47.4187 143.096 47.76L132.344 52.304C132.002 52.6027 131.789 52.9867 131.704 53.456V66C131.704 66.5547 131.896 67.024 132.28 67.408C132.664 67.792 133.154 67.984 133.752 67.984H146.744ZM174.614 67.984C175.467 67.984 176.171 68.2827 176.726 68.88C177.323 69.4347 177.622 70.1387 177.622 70.992C177.622 71.8453 177.323 72.5707 176.726 73.168C176.171 73.7227 175.467 74 174.614 74H159.446C158.592 74 157.867 73.7227 157.27 73.168C156.715 72.5707 156.438 71.8453 156.438 70.992V30.224C156.438 29.3707 156.715 28.6667 157.27 28.112C157.867 27.5147 158.592 27.216 159.446 27.216C160.299 27.216 161.003 27.5147 161.558 28.112C162.155 28.6667 162.454 29.3707 162.454 30.224V66C162.454 66.5547 162.646 67.024 163.03 67.408C163.414 67.792 163.904 67.984 164.502 67.984H174.614Z" fill="white"/>
<path d="M1.52512 180.525C0.158295 181.892 0.158295 184.108 1.52512 185.475L23.799 207.749C25.1658 209.116 27.3819 209.116 28.7487 207.749C30.1156 206.382 30.1156 204.166 28.7487 202.799L8.94975 183L28.7487 163.201C30.1156 161.834 30.1156 159.618 28.7487 158.251C27.3819 156.884 25.1658 156.884 23.799 158.251L1.52512 180.525ZM104 179.5H4V186.5H104V179.5Z" fill="white"/>
<line x1="100.5" y1="182" x2="100.5" y2="104" stroke="white" stroke-width="7"/>
</svg>
